<?xml version="1.0" standalone="no"?>
<!DOCTYPE svg PUBLIC "-//W3C//DTD SVG 20010904//EN"
 "http://www.w3.org/TR/2001/REC-SVG-20010904/DTD/svg10.dtd">
<svg version="1.0" xmlns="http://www.w3.org/2000/svg"
 width="866.000000pt" height="650.000000pt" viewBox="0 0 866.000000 650.000000"
 preserveAspectRatio="xMidYMid meet">

<g transform="translate(0.000000,650.000000) scale(0.100000,-0.100000)"
fill="#000000" stroke="none">
<path d="M1922 5508 c944 -1262 1854 -2481 1856 -2487 1 -4 -37 -50 -85 -102
-49 -52 -308 -333 -578 -624 -578 -625 -663 -717 -983 -1062 -133 -144 -242
-264 -242 -267 0 -3 94 -6 209 -6 l210 0 252 272 c681 735 1348 1456 1379
1491 l35 39 674 -901 673 -901 724 0 c398 0 724 3 724 6 0 6 -192 264 -1327
1782 -359 480 -653 877 -653 882 0 6 394 436 875 955 481 520 875 947 875 950
0 3 -96 5 -212 4 l-213 -1 -720 -778 c-396 -428 -739 -800 -762 -827 l-43 -47
-17 24 c-9 13 -238 319 -508 680 -270 360 -540 721 -600 803 l-109 147 -729 0
-729 0 24 -32z m2138 -1440 c1833 -2450 2065 -2761 2073 -2774 7 -12 -44 -14
-325 -14 l-333 1 -191 257 c-210 282 -1120 1499 -2116 2830 -351 469 -638 855
-638 858 0 2 150 3 332 2 l332 -3 866 -1157z"/>
</g>
</svg>
